<svg width="23" height="21" viewBox="0 0 23 21" fill="none" xmlns="http://www.w3.org/2000/svg">
<g clip-path="url(#clip0_1212_412)">
<path opacity="0.6" d="M12.1131 19.777C11.9376 19.9215 11.7174 20.0005 11.4901 20.0005C11.2628 20.0005 11.0426 19.9215 10.8671 19.777C5.3271 15.102 0.850102 10.749 1.0041 6.98499C1.0041 4.22099 3.0971 1.29199 6.7471 1.01199C8.0211 0.94099 9.9671 1.20599 11.4881 2.55399C13.0381 1.20199 15.1381 0.92199 16.2231 1.01699C19.4391 1.20399 21.9991 3.78699 21.9991 6.98499C22.0811 10.855 17.6791 15.11 12.1131 19.777Z" fill="white"/>
<path fill-rule="evenodd" clip-rule="evenodd" d="M12.781 20.524C12.4245 20.8307 11.9698 20.9994 11.4995 20.9994C11.0292 20.9994 10.5745 20.8307 10.218 20.524C7.748 18.398 5.262 16.201 3.393 14.062C1.593 12.002 0 9.6 0 7.066C0 3.057 3.216 0 7.208 0C8.73761 0.00859117 10.2306 0.468471 11.5 1.322C12.7694 0.468471 14.2624 0.00859117 15.792 0C19.784 0 23 3.057 23 7.065C23 9.599 21.408 12.002 19.607 14.062C17.738 16.202 15.251 18.398 12.782 20.525L12.781 20.524ZM11.5 2.512C12.7095 1.51567 14.225 0.965887 15.792 0.955C19.276 0.955 22.042 3.606 22.042 7.065C22.042 9.225 20.667 11.396 18.884 13.435C17.067 15.516 14.629 17.672 12.154 19.802C11.972 19.9588 11.7397 20.045 11.4995 20.045C11.2593 20.045 11.027 19.9588 10.845 19.802C8.371 17.672 5.934 15.516 4.115 13.436C2.334 11.396 0.959 9.225 0.959 7.066C0.959 3.606 3.724 0.955 7.209 0.955C8.764 0.955 10.311 1.529 11.501 2.512H11.5ZM7.208 3.92C5.289 3.92 3.925 5.315 3.925 7.066C3.925 8.059 4.621 9.508 6.35 11.487C7.719 13.053 9.512 14.709 11.5 16.447C13.488 14.709 15.281 13.053 16.65 11.487C18.38 9.508 19.075 8.059 19.075 7.067C19.075 5.315 17.711 3.92 15.792 3.92C14.739 3.92 13.658 4.416 12.982 5.194C12.7976 5.406 12.5699 5.57597 12.3143 5.69246C12.0586 5.80894 11.7809 5.86921 11.5 5.86921C11.2191 5.86921 10.9414 5.80894 10.6857 5.69246C10.4301 5.57597 10.2024 5.406 10.018 5.194C9.342 4.416 8.261 3.92 7.208 3.92ZM11.5 17.714C9.263 15.774 7.187 13.898 5.627 12.113C3.881 10.114 2.967 8.433 2.967 7.065C2.967 4.768 4.779 2.965 7.208 2.965C8.54 2.965 9.885 3.581 10.742 4.568C10.8362 4.67634 10.9526 4.7632 11.0833 4.82273C11.214 4.88225 11.3559 4.91305 11.4995 4.91305C11.6431 4.91305 11.785 4.88225 11.9157 4.82273C12.0464 4.7632 12.1628 4.67634 12.257 4.568C13.115 3.581 14.46 2.964 15.792 2.964C18.221 2.964 20.034 4.768 20.034 7.065C20.034 8.433 19.119 10.115 17.373 12.113C15.813 13.898 13.737 15.775 11.5 17.713V17.714Z" fill="white"/>
<path fill-rule="evenodd" clip-rule="evenodd" d="M7.225 3C4.805 3 3 4.796 3 7.082C3 8.442 3.91 10.116 5.65 12.105C7.204 13.882 9.271 15.749 11.5 17.679C13.729 15.749 15.796 13.882 17.35 12.105C19.09 10.116 20 8.443 20 7.081C20 4.796 18.194 3 15.775 3C14.449 3 13.109 3.614 12.255 4.597C12.1611 4.70508 12.0451 4.79175 11.9149 4.85114C11.7846 4.91054 11.6432 4.94128 11.5 4.94128C11.3568 4.94128 11.2154 4.91054 11.0851 4.85114C10.9549 4.79175 10.8389 4.70508 10.745 4.597C9.892 3.614 8.551 3 7.225 3ZM1 7.082C1 3.639 3.754 1 7.225 1C8.775 1 10.315 1.572 11.5 2.55C12.705 1.5582 14.2144 1.01094 15.775 1C19.245 1 22 3.639 22 7.082C22 9.231 20.63 11.392 18.855 13.422C17.045 15.492 14.617 17.637 12.152 19.758C11.9706 19.914 11.7393 19.9998 11.5 19.9998C11.2607 19.9998 11.0294 19.914 10.848 19.758C8.383 17.638 5.956 15.492 4.145 13.422C2.369 11.392 1 9.23 1 7.082Z" fill="#242424"/>
</g>
<defs>
<clipPath id="clip0_1212_412">
<rect width="23" height="21" fill="white"/>
</clipPath>
</defs>
</svg>
