<svg width="25" height="25" viewBox="0 0 25 25" fill="none" xmlns="http://www.w3.org/2000/svg">
<path d="M23.1386 0.515625H1.84825C1.07405 0.515625 0.493408 1.13498 0.493408 1.87046V23.1608C0.493408 23.935 1.11276 24.5156 1.84825 24.5156H13.3063V15.1866H10.2095V11.5866H13.3063V8.91562C13.3063 5.81885 15.1644 4.11562 17.9515 4.11562C18.8805 4.11562 19.8095 4.15433 20.7386 4.27046V7.48337H18.8805C17.4095 7.48337 17.0999 8.18014 17.0999 9.2253V11.5092H20.6224L20.1192 15.1479H17.0224V24.3608H23.1386C23.9128 24.3608 24.4934 23.7801 24.4934 23.0059V1.87046C24.4547 1.09627 23.8353 0.515625 23.1386 0.515625Z" fill="#D91F3C"/>
</svg>
