<svg width="25" height="25" viewBox="0 0 25 25" fill="none" xmlns="http://www.w3.org/2000/svg">
<path d="M23.1491 0.515625H2.57667C1.60444 0.515625 0.82666 1.28982 0.82666 2.25756V22.7737C0.82666 23.7027 1.60444 24.5156 2.57667 24.5156H23.0713C24.0435 24.5156 24.8213 23.7414 24.8213 22.7737V2.21885C24.8991 1.28982 24.1213 0.515625 23.1491 0.515625ZM7.94338 20.9156H4.40447V9.49627H7.94338V20.9156ZM6.15448 7.90917C4.9878 7.90917 4.09335 6.98014 4.09335 5.85756C4.09335 4.73498 5.02669 3.80595 6.15448 3.80595C7.28227 3.80595 8.21561 4.73498 8.21561 5.85756C8.21561 6.98014 7.36004 7.90917 6.15448 7.90917ZM21.3602 20.9156H17.8212V15.3801C17.8212 14.064 17.7823 12.3221 15.9546 12.3221C14.0879 12.3221 13.8157 13.793 13.8157 15.264V20.9156H10.2767V9.49627H13.7379V11.0834H13.7768C14.2823 10.1543 15.4101 9.2253 17.1601 9.2253C20.7768 9.2253 21.4379 11.5479 21.4379 14.7221V20.9156H21.3602Z" fill="#D91F3C"/>
</svg>
