<svg width="25" height="25" viewBox="0 0 25 25" fill="none" xmlns="http://www.w3.org/2000/svg">
<path d="M14.0542 0.516602C15.7016 0.519833 16.172 0.533683 17.212 0.593037C18.5296 0.631747 19.3822 0.825295 20.1573 1.13497C20.9324 1.44465 21.5912 1.83175 22.2501 2.48981C22.9089 3.14788 23.3352 3.80594 23.6065 4.61884C23.8778 5.43175 24.1103 6.32207 24.149 7.56078C24.1878 8.87691 24.1103 9.30272 24.1103 12.593L24.11 14.2489C24.1099 14.3249 24.1099 14.3984 24.1098 14.4698L24.1092 14.8718C24.1068 16.1923 24.0987 16.6421 24.0715 17.5092C24.0328 18.8253 23.8003 19.6769 23.529 20.4511C23.2577 21.2253 22.8314 21.9221 22.1726 22.5801C21.5137 23.2382 20.8549 23.664 20.041 23.935C19.2272 24.2059 18.4134 24.4382 17.0957 24.4769C16.7443 24.4872 16.4618 24.4948 16.174 24.5004L15.956 24.5041C15.5871 24.5099 15.1809 24.5127 14.5924 24.5142L14.2163 24.5149C14.1496 24.515 14.0807 24.5151 14.0096 24.5151L10.4807 24.515C8.66267 24.5125 8.22862 24.5001 7.17449 24.4382C5.85683 24.3995 5.00423 24.1672 4.22914 23.8963C3.45404 23.6253 2.75646 23.1995 2.09763 22.5414C1.4388 21.8834 1.0125 21.2253 0.741215 20.4124C0.469933 19.5995 0.237405 18.7866 0.19865 17.4705C0.190899 17.2072 0.184698 16.9827 0.179738 16.7656L0.173188 16.4417C0.166858 16.0792 0.163542 15.694 0.161806 15.1411L0.160942 14.7881C0.160825 14.7256 0.160722 14.661 0.16063 14.5944L0.1604 11.8956C0.165062 9.17454 0.201233 8.78917 0.237405 7.56078C0.276159 6.24465 0.469933 5.39304 0.77997 4.61884C1.05125 3.80594 1.47755 3.14788 2.13638 2.48981C2.79521 1.83175 3.45404 1.36723 4.26789 1.09626C5.08174 0.825295 5.89559 0.593037 7.21325 0.554328C8.13561 0.527231 8.58323 0.519102 9.89868 0.516663L14.0542 0.516602ZM14.2522 2.7228H10.173C9.31952 2.724 8.81291 2.72713 8.3536 2.73535L8.14388 2.73951C7.90058 2.74482 7.65763 2.75175 7.36827 2.76078C6.16687 2.79949 5.5468 3.03175 5.12049 3.18659C4.57793 3.41884 4.19038 3.6511 3.76408 4.07691C3.37653 4.46401 3.10525 4.88981 2.87272 5.43175C2.7177 5.89626 2.48518 6.51562 2.44642 7.67691C2.43738 7.96594 2.43045 8.20861 2.42513 8.45162L2.42096 8.6611C2.41336 9.08459 2.41011 9.54833 2.40871 10.2877L2.40798 10.8976C2.40793 10.9719 2.40788 11.0485 2.40785 11.1276L2.40767 17.3156C2.44642 18.5156 2.67895 19.135 2.83397 19.5608C3.10525 20.1027 3.33778 20.4898 3.76408 20.9156C4.15163 21.3414 4.57793 21.6124 5.12049 21.8447C5.58555 21.9995 6.20563 22.2317 7.36827 22.2705C8.22354 22.2972 8.69173 22.3054 9.94236 22.308L10.5619 22.3088C10.6375 22.3089 10.7155 22.3089 10.796 22.309L17.0182 22.3092C18.2196 22.2705 18.8397 22.0382 19.266 21.8834C19.8085 21.6124 20.1961 21.3801 20.6224 20.9543C21.0487 20.5672 21.32 20.1414 21.5525 19.5995C21.7075 19.135 21.94 18.5156 21.9788 17.3543C21.9865 17.1066 21.9943 16.8929 22.0017 16.6839L22.0091 16.4753C22.0354 15.7082 22.0563 14.8717 22.0563 12.5156L22.056 10.8976C22.0559 10.8232 22.0559 10.7512 22.0558 10.6814L22.0552 10.2877C22.0528 8.99381 22.0447 8.544 22.0175 7.67691C21.9788 6.47691 21.7463 5.85755 21.5912 5.43175C21.32 4.88981 21.0874 4.50271 20.6611 4.07691C20.2736 3.68981 19.8473 3.41884 19.3047 3.18659C18.8397 3.03175 18.2196 2.79949 17.0569 2.76078C16.7676 2.75175 16.5246 2.74482 16.2813 2.73951L16.0716 2.73535C15.6123 2.72713 15.1057 2.724 14.2522 2.7228ZM12.1738 6.36078C15.623 6.36078 18.3746 9.07046 18.3746 12.5156C18.3746 15.9608 15.5455 18.6705 12.1738 18.6705C8.80219 18.6705 6.01185 15.9608 6.01185 12.5156C6.01185 9.14788 8.72468 6.36078 12.1738 6.36078ZM12.1738 8.48981C9.96483 8.48981 8.14336 10.3092 8.14336 12.5156C8.14336 14.7221 9.92607 16.5414 12.1738 16.5414C14.4216 16.5414 16.2043 14.7608 16.2043 12.5156C16.2043 10.2705 14.4216 8.48981 12.1738 8.48981ZM18.6459 4.65755C19.4378 4.65755 20.0798 5.2988 20.0798 6.08981C20.0798 6.88083 19.4378 7.52207 18.6459 7.52207C17.8539 7.52207 17.212 6.88083 17.212 6.08981C17.212 5.2988 17.8539 4.65755 18.6459 4.65755Z" fill="#D91F3C"/>
</svg>
