<svg width="25" height="21" viewBox="0 0 25 21" fill="none" xmlns="http://www.w3.org/2000/svg">
<path d="M8.29763 20.1645C17.4331 20.1645 22.388 12.6161 22.388 6.07419C22.388 5.91936 22.388 5.64839 22.3492 5.41613C23.317 4.71935 24.1686 3.82903 24.8267 2.86129C23.8976 3.2871 22.9686 3.51935 22.0009 3.63548C23.046 3.01613 23.8202 2.04839 24.1686 0.887097C23.2009 1.42903 22.1944 1.85484 20.9944 2.0871C20.0654 1.11935 18.8267 0.5 17.3944 0.5C14.646 0.5 12.4009 2.74516 12.4009 5.49355C12.4009 5.88065 12.4396 6.26774 12.517 6.65484C8.52989 6.38387 4.89118 4.40968 2.41376 1.42903C1.98795 2.20323 1.75569 3.01613 1.75569 3.90645C1.75569 5.64839 2.64602 7.11935 4.00085 8.00968C3.18795 7.97097 2.41376 7.73871 1.75569 7.39032C1.75569 7.42903 1.75569 7.42903 1.75569 7.42903C1.75569 9.79032 3.45892 11.8419 5.70408 12.3065C5.27827 12.4226 4.81376 12.4613 4.46537 12.4613C4.15569 12.4613 3.80731 12.4226 3.53634 12.3452C4.1944 14.3194 6.01376 15.7516 8.1815 15.7903C6.47827 17.1065 4.34924 17.9194 2.06537 17.9194C1.60085 17.9968 1.21376 17.9194 0.82666 17.8806C2.91698 19.3516 5.51053 20.1645 8.29763 20.1645Z" fill="#D91F3C"/>
</svg>
