<svg width="20" height="19" viewBox="0 0 20 19" fill="none" xmlns="http://www.w3.org/2000/svg">
<path d="M19.4156 8.27638H18.0519H3.83117V1.94544C3.83117 1.51679 4.15584 1.18705 4.57792 1.18705H7.07792V2.14329C6.3961 2.24221 5.84416 2.83573 5.84416 3.56115V5.01199C5.84416 5.34173 6.1039 5.60552 6.42857 5.60552H8.73377C9.05844 5.60552 9.31818 5.34173 9.31818 5.01199V3.56115C9.31818 2.90168 8.86364 2.34113 8.24675 2.17626V0.593525C8.24675 0.263789 7.98701 0 7.66234 0H4.57792C3.53896 0 2.69481 0.857314 2.69481 1.91247V8.2434H2.17532H1.94805H0.584416C0.25974 8.2434 0 8.50719 0 8.83693C0 9.16667 0.25974 9.43045 0.584416 9.43045H1.36364V12.0683C1.36364 14.0138 2.79221 15.6295 4.64286 15.8933L3.92857 17.509C3.7987 17.8058 3.92857 18.1355 4.22078 18.2674C4.28571 18.3004 4.38312 18.3333 4.44805 18.3333C4.67532 18.3333 4.87013 18.2014 4.96753 18.0036L5.87662 15.9592H14.8052C14.8701 15.9592 14.9351 15.9592 15.0325 15.9592L15.9416 18.0036C16.039 18.2344 16.2338 18.3333 16.461 18.3333C16.526 18.3333 16.6234 18.3333 16.6883 18.2674C16.9805 18.1355 17.1104 17.8058 16.9805 17.509L16.1688 15.6954C17.5974 15.1349 18.6364 13.717 18.6364 12.0683V9.43045H19.4156C19.7403 9.43045 20 9.16667 20 8.83693C20 8.54017 19.7403 8.27638 19.4156 8.27638ZM8.14935 4.45144H6.98052V3.56115C6.98052 3.39628 7.11039 3.26439 7.27273 3.26439H7.85714C8.01948 3.26439 8.14935 3.39628 8.14935 3.56115V4.45144ZM17.5 12.0683C17.5 13.5522 16.2987 14.8052 14.8052 14.8052H5.19481C3.73377 14.8052 2.5 13.5851 2.5 12.0683V9.43045H17.5V12.0683Z" fill="#45525B"/>
</svg>
