<svg width="18" height="20" viewBox="0 0 18 20" fill="none" xmlns="http://www.w3.org/2000/svg">
<path d="M17.4044 13.2792C17.4044 13.2468 17.4044 13.2468 17.4044 13.2468L14.6949 7.24026V1.98052C14.6949 0.909091 13.8342 0 12.7505 0H4.71767C3.66576 0 2.77322 0.876623 2.77322 1.98052V7.24026L0.0637522 13.2468C0.0318761 13.3117 0 13.4091 0 13.474V19.4156C0 19.7403 0.255009 20 0.57377 20C0.892532 20 1.14754 19.7403 1.14754 19.4156V17.6948H16.3525V19.4156C16.3525 19.7403 16.6075 20 16.9262 20C17.245 20 17.5 19.7403 17.5 19.4156V13.474C17.4362 13.4091 17.4362 13.3442 17.4044 13.2792ZM3.69763 7.92208H13.7386L16.0018 12.9221H1.4663L3.69763 7.92208ZM3.92076 1.98052C3.92076 1.52597 4.2714 1.13636 4.74954 1.13636H12.7505C13.1967 1.13636 13.5792 1.49351 13.5792 1.98052V6.78571H3.92076V1.98052ZM1.14754 16.5584V14.0584H16.3525V16.5584H1.14754Z" fill="#45525B"/>
</svg>
