<svg width="15" height="20" viewBox="0 0 15 20" fill="none" xmlns="http://www.w3.org/2000/svg">
<path d="M12.3035 0C13.2993 0 14.1345 0.813008 14.1667 1.85366V18.1138C14.1667 19.1545 13.3314 20 12.3035 20H1.86319C0.835223 20 0 19.1545 0 18.1138V1.85366C0 0.813008 0.835223 0 1.83107 0H12.3035ZM12.2714 1.10569H1.83107C1.41345 1.10569 1.09221 1.46341 1.09221 1.85366V18.1138C1.09221 18.5366 1.44558 18.8618 1.83107 18.8618H12.2714C12.689 18.8618 13.0102 18.5041 13.0102 18.1138V1.85366C13.0102 1.43089 12.6568 1.10569 12.2714 1.10569ZM10.5688 8.68293C11.147 8.68293 11.661 9.17073 11.661 9.78862C11.661 10.4065 11.1791 10.8943 10.5688 10.8943C9.95843 10.8943 9.47657 10.4065 9.47657 9.78862C9.47657 9.17073 9.95843 8.68293 10.5688 8.68293Z" fill="#45525B"/>
</svg>
