<svg width="20" height="20" viewBox="0 0 20 20" fill="none" xmlns="http://www.w3.org/2000/svg">
<path fill-rule="evenodd" clip-rule="evenodd" d="M10.0002 2.85693C8.02775 2.85693 6.42876 4.45592 6.42876 6.42836C6.42876 8.40081 8.02775 9.99979 10.0002 9.99979C11.9726 9.99979 13.5716 8.40081 13.5716 6.42836C13.5716 4.45592 11.9726 2.85693 10.0002 2.85693ZM7.85733 6.42836C7.85733 5.24489 8.81672 4.28551 10.0002 4.28551C11.1837 4.28551 12.143 5.24489 12.143 6.42836C12.143 7.61183 11.1837 8.57122 10.0002 8.57122C8.81672 8.57122 7.85733 7.61183 7.85733 6.42836Z" fill="#292929"/>
<path fill-rule="evenodd" clip-rule="evenodd" d="M8.00289 11.4284C5.95811 11.4284 4.17003 12.6637 3.40171 14.4699L3.20898 14.923L3.56384 15.2643C5.23231 16.8692 7.50165 17.8569 10.0002 17.8569C12.5473 17.8569 14.8561 16.8304 16.533 15.1702L16.8402 14.8661L16.7133 14.4529C16.1687 12.6802 14.5228 11.4284 12.617 11.4284H8.00289ZM10.0002 16.4284C8.07374 16.4284 6.31025 15.7358 4.94328 14.585C5.57319 13.5405 6.71772 12.8569 8.00289 12.8569H12.617C13.7374 12.8569 14.724 13.5064 15.19 14.4706C13.8053 15.6898 11.9896 16.4284 10.0002 16.4284Z" fill="#292929"/>
</svg>
